<?xml version="1.0" standalone="no"?>
<!DOCTYPE svg PUBLIC "-//W3C//DTD SVG 20010904//EN"
 "http://www.w3.org/TR/2001/REC-SVG-20010904/DTD/svg10.dtd">
<svg version="1.0" xmlns="http://www.w3.org/2000/svg"
 width="500.000000pt" height="500.000000pt" viewBox="0 0 500.000000 500.000000"
 preserveAspectRatio="xMidYMid meet">

<g transform="translate(0.000000,500.000000) scale(0.100000,-0.100000)"
fill="#000000" stroke="none">
<path d="M1590 4948 c-36 -14 -74 -40 -112 -78 -48 -48 -60 -68 -79 -129 -51
-169 23 -336 180 -409 46 -22 71 -26 137 -27 73 0 88 3 149 35 201 102 248
354 98 520 -67 75 -128 103 -233 107 -69 3 -95 -1 -140 -19z"/>
<path d="M3493 4949 c-70 -27 -145 -100 -180 -174 -24 -51 -28 -72 -27 -140 0
-107 27 -167 106 -240 106 -98 236 -119 370 -58 110 49 178 150 186 274 9 150
-49 256 -177 322 -66 34 -80 37 -149 36 -52 0 -94 -7 -129 -20z"/>
<path d="M1685 4242 c-42 -5 -473 -171 -516 -198 -46 -29 -77 -72 -95 -131
-16 -51 -20 -498 -6 -521 7 -10 144 -12 653 -10 l644 3 3 244 c3 284 -3 317
-72 385 -43 43 -55 49 -381 171 -147 55 -181 64 -230 57z"/>
<path d="M3591 4242 c-32 -3 -440 -155 -498 -186 -40 -21 -89 -75 -110 -121
-15 -34 -18 -76 -21 -286 -3 -204 -1 -247 11 -257 11 -9 170 -12 653 -10 l639
3 3 250 c2 151 -1 264 -7 285 -14 46 -73 116 -120 139 -61 31 -444 174 -481
180 -19 3 -50 5 -69 3z"/>
<path d="M715 3097 c-54 -95 -171 -296 -260 -447 -278 -473 -445 -762 -445
-769 0 -3 102 -66 226 -140 176 -104 228 -130 235 -120 5 8 39 66 75 129 37
63 142 243 234 400 347 592 490 839 490 848 0 4 -19 19 -42 32 -24 13 -119 68
-212 123 -94 54 -177 102 -186 107 -12 7 -34 -24 -115 -163z"/>
<path d="M4240 3143 c-129 -42 -236 -77 -238 -79 -4 -3 49 -172 213 -679 68
-209 155 -483 195 -610 40 -126 75 -233 79 -237 4 -5 120 29 257 75 l251 82
-113 350 c-153 476 -332 1036 -355 1113 -15 45 -24 62 -37 61 -9 0 -123 -35
-252 -76z"/>
<path d="M2213 2693 c-148 -130 -303 -268 -345 -307 l-78 -70 0 -241 c0 -133
3 -276 6 -318 l7 -75 33 -7 c57 -10 109 11 173 71 87 80 121 161 141 337 11
94 31 145 79 199 39 45 114 81 177 86 l52 4 119 -110 c65 -61 147 -140 183
-177 36 -37 265 -264 510 -505 l446 -438 154 120 c85 66 217 168 293 225 76
58 136 111 134 117 -5 14 -352 1092 -374 1161 -8 28 -19 54 -23 58 -4 4 -82
-9 -175 -30 l-168 -38 -526 88 c-289 48 -532 88 -538 87 -7 0 -133 -107 -280
-237z"/>
<path d="M1243 2622 c-50 -86 -197 -338 -327 -560 -130 -222 -236 -407 -236
-412 0 -4 38 -32 84 -61 78 -49 87 -58 136 -141 29 -48 55 -88 58 -88 3 0 38
32 78 70 89 86 145 114 234 114 105 0 204 -59 241 -143 10 -22 19 -29 29 -25
73 33 130 46 176 41 169 -17 278 -175 241 -348 -7 -36 -7 -37 37 -59 52 -25
101 -76 127 -134 23 -50 25 -162 5 -210 -14 -34 -14 -34 17 -47 93 -39 156
-140 158 -254 l0 -70 130 -115 c155 -138 173 -150 223 -150 30 0 45 7 72 34
39 39 46 89 18 134 -9 15 -100 101 -201 192 -325 290 -323 288 -323 323 1 39
18 63 53 76 48 19 40 25 427 -324 228 -205 214 -195 266 -195 92 0 148 104 93
174 -11 14 -80 79 -152 143 -299 266 -447 406 -453 428 -11 43 30 94 77 95 34
0 40 -5 324 -259 132 -119 276 -247 320 -287 94 -84 112 -94 160 -94 53 0 105
53 105 107 -1 21 -6 47 -13 59 -13 22 -108 109 -417 383 -107 95 -205 184
-217 197 -51 55 -12 139 60 132 31 -3 83 -46 392 -323 196 -176 369 -328 383
-337 37 -24 103 -23 135 2 14 11 31 36 37 55 21 63 2 92 -155 242 -79 76 -389
381 -690 677 -517 511 -547 539 -572 530 -44 -15 -62 -52 -73 -144 -24 -198
-68 -300 -176 -408 -97 -97 -160 -127 -269 -127 -96 1 -173 30 -208 79 -22 30
-22 37 -25 396 -2 201 0 375 3 387 3 12 64 75 136 140 l131 118 -152 8 -153 7
-128 65 c-70 36 -129 65 -131 65 -2 0 -44 -71 -95 -158z"/>
<path d="M1236 1379 c-33 -9 -218 -186 -242 -231 -33 -63 -2 -139 64 -159 25
-7 49 -8 65 -3 28 10 201 169 235 217 40 56 20 144 -37 166 -47 17 -56 18 -85
10z"/>
<path d="M1660 1252 c-24 -4 -339 -305 -382 -365 -27 -37 -27 -100 -1 -135 11
-15 38 -33 59 -41 35 -12 44 -12 75 3 20 9 115 97 211 194 189 191 201 211
174 277 -21 51 -76 78 -136 67z"/>
<path d="M1683 738 c-110 -110 -144 -149 -149 -175 -17 -92 81 -163 164 -119
32 17 255 242 271 273 37 74 -23 163 -110 163 -28 0 -51 -18 -176 -142z"/>
<path d="M1898 402 c-67 -66 -80 -84 -85 -118 -10 -80 55 -145 131 -128 46 10
184 147 192 191 14 72 -38 133 -114 133 -42 0 -49 -4 -124 -78z"/>
</g>
</svg>
