<svg width="85" height="85" viewBox="0 0 85 85" fill="none" xmlns="http://www.w3.org/2000/svg">
<path d="M73.2481 40.0048C72.8125 40.0058 72.3861 40.1304 72.0185 40.364C71.6509 40.5977 71.3572 40.9309 71.1714 41.3248H64.3939C64.152 35.9393 61.9273 30.8333 58.1477 26.9892L62.6955 22.0711C63.1086 22.1918 63.5472 22.194 63.9614 22.0772C64.3756 21.9605 64.7486 21.7297 65.0379 21.411V21.411C65.3179 21.1085 65.5116 20.7362 65.5987 20.3332C65.6857 19.9302 65.6629 19.5112 65.5326 19.12C65.4024 18.7288 65.1695 18.3797 64.8582 18.1093C64.5469 17.8389 64.1688 17.6571 63.7632 17.5828C63.3576 17.5085 62.9396 17.5445 62.5527 17.6871C62.1658 17.8296 61.8243 18.0734 61.5638 18.393C61.3034 18.7127 61.1335 19.0964 61.0721 19.5041C61.0106 19.9118 61.0598 20.3285 61.2145 20.7108L56.6747 25.6288C53.008 22.4858 48.4019 20.6485 43.5786 20.4049V13.8287C44.0517 13.6055 44.4348 13.2279 44.6646 12.758C44.8944 12.288 44.9574 11.7538 44.843 11.2434C44.7287 10.7329 44.4439 10.2766 44.0356 9.94961C43.6272 9.62262 43.1197 9.44446 42.5966 9.44446C42.0735 9.44446 41.566 9.62262 41.1576 9.94961C40.7493 10.2766 40.4645 10.7329 40.3502 11.2434C40.2359 11.7538 40.2988 12.288 40.5286 12.758C40.7584 13.2279 41.1415 13.6055 41.6146 13.8287V20.4129C36.2057 20.632 31.071 22.8523 27.2065 26.643L22.4172 22.216C22.5557 21.7957 22.5701 21.3444 22.4588 20.9161C22.3474 20.4879 22.115 20.1008 21.7893 19.8012V19.8012C21.4877 19.5204 21.1163 19.3257 20.7138 19.2374C20.3113 19.1492 19.8924 19.1706 19.501 19.2994C19.1096 19.4282 18.7599 19.6597 18.4885 19.9698C18.2171 20.2798 18.0339 20.6571 17.958 21.0621C17.8821 21.4671 17.9163 21.8851 18.0571 22.2724C18.1978 22.6597 18.44 23.0021 18.7582 23.2639C19.0764 23.5257 19.4591 23.6973 19.8663 23.7607C20.2734 23.8242 20.6902 23.7771 21.073 23.6246L25.8462 28.0597C22.6624 31.7693 20.8171 36.4409 20.6061 41.3248H13.8287C13.6055 40.8517 13.2279 40.4687 12.758 40.2388C12.288 40.009 11.7538 39.9461 11.2434 40.0604C10.7329 40.1748 10.2766 40.4595 9.94961 40.8679C9.62262 41.2762 9.44446 41.7837 9.44446 42.3068C9.44446 42.83 9.62262 43.3375 9.94961 43.7458C10.2766 44.1541 10.7329 44.4389 11.2434 44.5533C11.7538 44.6676 12.288 44.6047 12.758 44.3748C13.2279 44.145 13.6055 43.762 13.8287 43.2888H20.6061C20.8632 48.7542 23.161 53.9243 27.0455 57.7775L22.5943 62.607C22.3338 62.5269 22.0616 62.4916 21.7893 62.5024C21.487 62.5082 21.1888 62.5735 20.9117 62.6945C20.6347 62.8156 20.3842 62.99 20.1745 63.2079C19.9648 63.4258 19.8002 63.6828 19.6898 63.9644C19.5795 64.2459 19.5257 64.5464 19.5315 64.8487C19.5374 65.151 19.6027 65.4492 19.7237 65.7263C19.8448 66.0034 20.0192 66.2539 20.2371 66.4636C20.455 66.6732 20.712 66.8379 20.9936 66.9482C21.2751 67.0585 21.5756 67.1123 21.8779 67.1065H21.9745C22.2786 67.0964 22.5776 67.0257 22.8541 66.8986C23.1305 66.7714 23.3788 66.5903 23.5843 66.366V66.366C23.8784 66.0463 24.0761 65.6498 24.1544 65.2225C24.2328 64.7952 24.1886 64.3545 24.027 63.9512L28.4863 59.1217C32.196 62.2306 36.8343 64.0174 41.6709 64.2007V70.8414C41.1978 71.0645 40.8148 71.4421 40.585 71.9121C40.3551 72.382 40.2922 72.9162 40.4065 73.4266C40.5209 73.9371 40.8057 74.3934 41.214 74.7204C41.6223 75.0474 42.1298 75.2256 42.653 75.2256C43.1761 75.2256 43.6836 75.0474 44.0919 74.7204C44.5002 74.3934 44.785 73.9371 44.8994 73.4266C45.0137 72.9162 44.9508 72.382 44.7209 71.9121C44.4911 71.4421 44.1081 71.0645 43.635 70.8414V64.2007C49.0163 63.9296 54.1075 61.6792 57.9304 57.8821L62.8404 62.4621C62.7301 62.8076 62.703 63.1743 62.7612 63.5322C62.8195 63.8902 62.9615 64.2294 63.1757 64.522C63.3899 64.8147 63.6703 65.0526 63.9939 65.2164C64.3175 65.3802 64.6752 65.4652 65.0379 65.4645H65.1264C65.5896 65.4553 66.0392 65.3066 66.4165 65.0378C66.7938 64.769 67.0812 64.3926 67.2412 63.9579C67.4012 63.5231 67.4263 63.0502 67.3132 62.601C67.2001 62.1518 66.9542 61.7471 66.6075 61.4399V61.4399C66.2891 61.1435 65.893 60.9438 65.4655 60.864C65.0379 60.7842 64.5965 60.8276 64.1927 60.9891L59.2424 56.4332C62.3692 52.744 64.1813 48.1202 64.3939 43.2888H71.1714C71.3473 43.6619 71.6202 43.9808 71.9616 44.2122C72.3029 44.4437 72.7002 44.5792 73.1118 44.6045C73.5234 44.6299 73.9344 44.5443 74.3016 44.3565C74.6688 44.1687 74.9788 43.8858 75.1992 43.5372C75.4196 43.1886 75.5423 42.7872 75.5546 42.375C75.5668 41.9628 75.468 41.5548 75.2686 41.1938C75.0692 40.8328 74.7765 40.532 74.421 40.3228C74.0656 40.1136 73.6605 40.0038 73.2481 40.0048V40.0048ZM11.752 43.2969C11.5538 43.3016 11.3589 43.2468 11.1922 43.1395C11.0256 43.0322 10.895 42.8773 10.8174 42.695C10.7398 42.5126 10.7186 42.3112 10.7568 42.1167C10.7949 41.9222 10.8905 41.7437 11.0312 41.6041C11.1719 41.4646 11.3513 41.3705 11.5461 41.334C11.7409 41.2975 11.9421 41.3203 12.1238 41.3995C12.3055 41.4786 12.4592 41.6105 12.5651 41.778C12.6711 41.9455 12.7243 42.141 12.7179 42.339C12.7097 42.5919 12.6051 42.832 12.4255 43.0101C12.2458 43.1882 12.0049 43.2909 11.752 43.2969ZM55.5478 36.7931C55.0267 36.3725 54.3684 36.1596 53.6997 36.1952C53.031 36.2309 52.3991 36.5127 51.9257 36.9863L45.1241 34.1771C45.0166 33.7672 44.8152 33.388 44.5358 33.0694C44.2564 32.7509 43.9066 32.5018 43.5142 32.3419V22.385C47.2478 22.5724 50.8539 23.8031 53.923 25.9374C56.9922 28.0717 59.4012 31.024 60.8764 34.4588L55.5478 36.7931ZM48.5772 61.3111C46.9292 61.8404 45.2189 62.1516 43.4901 62.2367V37.4129C44.0772 37.1825 44.5665 36.7559 44.8745 36.2055L51.1368 38.7893C51.1368 38.7893 51.1368 38.8698 51.1368 38.9101C51.1388 39.4573 51.3058 39.9913 51.616 40.4422C51.9261 40.8931 52.3651 41.24 52.8755 41.4375V49.2614L48.5852 53.1411L48.5772 61.3111ZM30.6355 39.5781C30.6355 39.4301 30.6794 39.2854 30.7616 39.1623C30.8439 39.0392 30.9608 38.9432 31.0976 38.8866C31.2343 38.8299 31.3849 38.8151 31.5301 38.844C31.6753 38.8728 31.8087 38.9441 31.9134 39.0488C32.018 39.1535 32.0893 39.2869 32.1182 39.4321C32.1471 39.5773 32.1323 39.7278 32.0756 39.8646C32.019 40.0014 31.923 40.1183 31.7999 40.2006C31.6768 40.2828 31.5321 40.3267 31.384 40.3267C31.1869 40.3267 30.9977 40.249 30.8575 40.1103C30.7174 39.9717 30.6376 39.7833 30.6355 39.5862V39.5781ZM32.366 42.1056C32.9779 41.87 33.4834 41.4202 33.7885 40.8398C34.0935 40.2593 34.1772 39.5879 34.0242 38.9503L40.2704 36.4309C40.5788 36.8704 41.0099 37.2092 41.51 37.4049V62.2367C39.8714 62.1558 38.2491 61.8719 36.6804 61.3916V53.1411L32.3902 49.4626L32.366 42.1056ZM43.2486 34.8613C43.2518 35.01 43.2106 35.1563 43.1303 35.2815C43.05 35.4067 42.9343 35.5051 42.7978 35.5643C42.6613 35.6234 42.5103 35.6405 42.3641 35.6135C42.2178 35.5865 42.083 35.5165 41.9766 35.4124C41.8703 35.3084 41.7974 35.1751 41.7672 35.0295C41.737 34.8838 41.7509 34.7325 41.807 34.5948C41.8632 34.457 41.9591 34.3392 42.0825 34.2562C42.2059 34.1732 42.3513 34.1289 42.5 34.1288C42.6985 34.1288 42.889 34.2077 43.0293 34.3481C43.1697 34.4885 43.2486 34.6789 43.2486 34.8774V34.8613ZM53.0928 38.8859C53.0928 38.7379 53.1367 38.5931 53.219 38.47C53.3012 38.3469 53.4181 38.251 53.5549 38.1943C53.6917 38.1377 53.8422 38.1228 53.9874 38.1517C54.1326 38.1806 54.266 38.2519 54.3707 38.3566C54.4754 38.4613 54.5467 38.5947 54.5756 38.7399C54.6045 38.8851 54.5896 39.0356 54.533 39.1724C54.4763 39.3092 54.3804 39.4261 54.2573 39.5083C54.1342 39.5906 53.9894 39.6345 53.8414 39.6345C53.6483 39.6325 53.4636 39.556 53.3256 39.4211C53.1876 39.2861 53.1071 39.103 53.1008 38.9101L53.0928 38.8859ZM62.6231 19.1975C62.7109 19.1027 62.8165 19.0262 62.9339 18.9724C63.0513 18.9185 63.1782 18.8883 63.3073 18.8836V18.8836C63.5347 18.8821 63.7557 18.959 63.9331 19.1014C64.1105 19.2437 64.2334 19.4427 64.2814 19.665C64.3293 19.8873 64.2992 20.1194 64.1962 20.3221C64.0931 20.5249 63.9234 20.686 63.7156 20.7783C63.5078 20.8707 63.2745 20.8887 63.055 20.8293C62.8355 20.7699 62.6431 20.6368 62.5102 20.4522C62.3772 20.2677 62.3119 20.043 62.3251 19.816C62.3384 19.5889 62.4294 19.3734 62.5828 19.2055L62.6231 19.1975ZM42.6288 10.7619C42.8246 10.7619 43.016 10.82 43.1788 10.9288C43.3417 11.0375 43.4686 11.1922 43.5435 11.3731C43.6184 11.554 43.638 11.7531 43.5998 11.9451C43.5616 12.1372 43.4673 12.3136 43.3289 12.452C43.1904 12.5905 43.014 12.6848 42.822 12.723C42.6299 12.7612 42.4308 12.7416 42.2499 12.6667C42.069 12.5917 41.9144 12.4648 41.8056 12.302C41.6968 12.1392 41.6387 11.9478 41.6387 11.752C41.6387 11.4894 41.7431 11.2376 41.9287 11.0519C42.1144 10.8662 42.3662 10.7619 42.6288 10.7619V10.7619ZM41.518 22.385V32.3499C41.0676 32.5255 40.672 32.8179 40.3721 33.197C40.0722 33.5762 39.8787 34.0284 39.8116 34.5071L32.8409 37.3083C32.2876 36.9466 31.6209 36.8001 30.9668 36.8965C30.3128 36.9929 29.7167 37.3255 29.2912 37.8315L23.85 35.1752C25.2394 31.5609 27.6488 28.4281 30.7854 26.1574C33.922 23.8868 37.6506 22.5762 41.518 22.385V22.385ZM19.5517 22.216C19.4133 22.0775 19.319 21.9011 19.2809 21.709C19.2427 21.517 19.2624 21.318 19.3373 21.1371C19.4123 20.9562 19.5392 20.8016 19.702 20.6928C19.8648 20.5841 20.0562 20.526 20.2519 20.526C20.4477 20.526 20.6391 20.5841 20.8019 20.6928C20.9647 20.8016 21.0916 20.9562 21.1666 21.1371C21.2415 21.318 21.2612 21.517 21.223 21.709C21.1849 21.9011 21.0906 22.0775 20.9522 22.216C20.8603 22.308 20.7511 22.3809 20.631 22.4307C20.5108 22.4805 20.382 22.5061 20.2519 22.5061C20.1219 22.5061 19.9931 22.4805 19.8729 22.4307C19.7528 22.3809 19.6436 22.308 19.5517 22.216ZM23.2543 37.0346L28.6714 39.6828C28.6948 40.2097 28.8708 40.7185 29.178 41.1472C29.4853 41.576 29.9105 41.9061 30.402 42.0976V50.3883L34.6923 54.0668V60.6832C30.2505 58.7957 26.6441 55.3612 24.5422 51.0167C22.4403 46.6723 21.9856 41.713 23.2624 37.0587L23.2543 37.0346ZM22.5943 65.4564C22.5065 65.5512 22.4009 65.6277 22.2835 65.6815C22.1661 65.7354 22.0392 65.7656 21.9101 65.7703C21.6484 65.7773 21.3943 65.682 21.2018 65.5047C21.0585 65.3715 20.9578 65.1988 20.9126 65.0085C20.8673 64.8182 20.8795 64.6187 20.9475 64.4353C21.0156 64.2518 21.1364 64.0927 21.2948 63.9779C21.4533 63.8631 21.6421 63.7978 21.8376 63.7902C22.0292 63.7914 22.2162 63.8482 22.3761 63.9535C22.5361 64.0589 22.662 64.2084 22.7387 64.3839C22.8154 64.5594 22.8395 64.7534 22.8081 64.9423C22.7768 65.1312 22.6913 65.307 22.5621 65.4484L22.5943 65.4564ZM42.6208 73.892C42.4243 73.8904 42.2327 73.8303 42.0705 73.7194C41.9083 73.6086 41.7827 73.4519 41.7098 73.2695C41.6368 73.087 41.6198 72.887 41.6609 72.6949C41.7021 72.5027 41.7994 72.3272 41.9406 72.1905C42.0818 72.0539 42.2604 71.9624 42.4538 71.9276C42.6472 71.8928 42.8466 71.9163 43.0265 71.9952C43.2065 72.0741 43.3589 72.2047 43.4644 72.3705C43.5699 72.5363 43.6236 72.7297 43.6189 72.9261C43.6189 73.1887 43.5145 73.4405 43.3289 73.6262C43.1432 73.8119 42.8914 73.9162 42.6288 73.9162L42.6208 73.892ZM64.9976 62.1723C65.2252 62.1726 65.4457 62.2513 65.6221 62.3951C65.7985 62.5389 65.9199 62.7391 65.966 62.962C66.012 63.1848 65.9799 63.4168 65.875 63.6187C65.7701 63.8207 65.5989 63.9803 65.3901 64.0708C65.1812 64.1613 64.9476 64.1771 64.7285 64.1155C64.5095 64.054 64.3183 63.9188 64.1872 63.7328C64.0561 63.5468 63.993 63.3213 64.0087 63.0942C64.0244 62.8672 64.1178 62.6525 64.2732 62.4863C64.3702 62.3815 64.4888 62.2991 64.6209 62.2449C64.7529 62.1907 64.8952 62.1659 65.0379 62.1723H64.9976ZM50.509 60.5625V54.0104L54.7992 50.1307V41.4375C55.3754 41.2179 55.8585 40.807 56.1677 40.2736C56.477 39.7402 56.5934 39.1167 56.4976 38.5076L61.4962 36.3263C62.9716 41.0052 62.6707 46.0638 60.6512 50.535C58.6317 55.0061 55.0352 58.5761 50.5492 60.5625H50.509ZM73.2481 43.2969C73.0509 43.2968 72.8583 43.2378 72.6948 43.1275C72.5314 43.0173 72.4046 42.8607 72.3307 42.6779C72.2568 42.4951 72.2392 42.2944 72.2801 42.1015C72.3209 41.9087 72.4185 41.7324 72.5602 41.5953C72.7019 41.4582 72.8813 41.3665 73.0754 41.332C73.2695 41.2976 73.4695 41.3218 73.6498 41.4017C73.83 41.4816 73.9823 41.6135 74.0871 41.7805C74.192 41.9475 74.2445 42.142 74.2381 42.339C74.2298 42.596 74.1218 42.8396 73.937 43.0184C73.7522 43.1971 73.5052 43.297 73.2481 43.2969V43.2969Z" fill="black"/>
</svg>
