<?xml version="1.0" standalone="no"?>
<!DOCTYPE svg PUBLIC "-//W3C//DTD SVG 20010904//EN"
 "http://www.w3.org/TR/2001/REC-SVG-20010904/DTD/svg10.dtd">
<svg version="1.0" xmlns="http://www.w3.org/2000/svg"
 width="500.000000pt" height="500.000000pt" viewBox="0 0 500.000000 500.000000"
 preserveAspectRatio="xMidYMid meet">

<g transform="translate(0.000000,500.000000) scale(0.100000,-0.100000)"
fill="#000000" stroke="none">
<path d="M2045 4976 c-28 -12 -83 -67 -86 -84 -1 -4 -4 -65 -8 -136 l-6 -128
-90 -28 c-135 -41 -216 -74 -363 -147 l-132 -67 -93 91 c-100 99 -135 115
-199 94 -23 -8 -127 -104 -340 -319 -263 -263 -307 -312 -313 -344 -11 -60 9
-97 104 -192 l88 -88 -53 -96 c-61 -112 -126 -268 -165 -397 l-27 -90 -131 -6
c-142 -6 -160 -12 -205 -73 -20 -27 -21 -39 -21 -466 0 -427 1 -439 21 -466
45 -62 64 -68 205 -72 85 -3 132 -8 134 -16 46 -167 130 -375 202 -502 l41
-72 -89 -88 c-95 -95 -115 -132 -104 -192 6 -32 50 -81 313 -344 213 -215 317
-311 340 -319 64 -21 99 -5 199 94 l93 91 132 -67 c147 -73 228 -106 363 -147
l90 -28 6 -131 c6 -142 12 -160 73 -205 27 -20 39 -21 466 -21 427 0 439 1
466 21 57 42 68 67 72 169 l4 95 217 0 216 0 29 -56 c84 -161 279 -257 454
-225 142 26 263 119 326 251 29 61 31 72 31 180 0 109 -2 119 -32 183 -62 130
-189 225 -336 249 -173 29 -359 -68 -446 -232 l-32 -60 -215 0 -214 0 0 540 0
540 448 0 447 -1 110 -91 c63 -53 109 -98 108 -107 -1 -9 -7 -48 -14 -87 -23
-134 29 -274 139 -375 178 -163 439 -154 606 20 129 136 159 320 79 490 -35
74 -131 169 -206 204 -110 52 -247 55 -353 8 -26 -12 -51 -21 -56 -21 -5 0
-72 52 -150 116 -77 63 -152 120 -165 125 -14 5 -235 9 -509 9 l-484 0 0 200
0 200 557 -2 557 -3 25 -50 c35 -70 134 -166 203 -198 31 -15 90 -32 130 -39
141 -21 286 33 385 147 159 179 144 442 -35 605 -134 124 -315 151 -481 73
-68 -32 -167 -129 -202 -198 l-25 -50 -557 -3 -557 -2 0 200 0 200 484 0 c274
0 495 4 509 9 13 5 88 62 165 125 78 64 145 116 150 116 5 0 30 -9 56 -21 106
-47 243 -44 353 8 75 35 171 130 206 204 83 176 47 370 -92 503 -174 165 -421
166 -598 2 -108 -100 -159 -244 -133 -377 6 -35 13 -71 13 -80 1 -9 -46 -55
-108 -107 l-110 -91 -447 -1 -448 0 0 540 0 540 214 0 215 0 32 -60 c39 -74
131 -163 201 -195 29 -13 83 -29 121 -35 182 -32 378 73 460 247 30 64 32 74
32 183 0 108 -2 119 -31 180 -63 132 -184 225 -326 251 -176 32 -369 -63 -453
-224 l-30 -57 -216 0 -217 0 -4 95 c-4 102 -15 127 -72 169 -27 20 -41 21
-454 23 -340 2 -433 0 -457 -11z m695 -724 c0 -247 -2 -451 -5 -454 -3 -3 -27
-1 -53 5 -79 16 -326 12 -425 -7 -544 -106 -967 -531 -1064 -1070 -21 -119
-21 -333 0 -452 97 -541 528 -972 1071 -1071 101 -18 340 -21 418 -5 26 5 50
7 53 4 3 -3 5 -207 5 -454 l0 -448 -247 2 -248 3 -5 120 c-3 81 -10 127 -19
142 -21 31 -77 59 -146 73 -174 35 -451 150 -610 254 -60 39 -78 46 -121 46
-59 0 -94 -22 -183 -113 l-55 -56 -172 172 -173 172 73 75 c88 89 96 104 96
167 0 40 -8 60 -45 117 -109 168 -210 406 -250 591 -19 89 -45 144 -78 165
-15 10 -62 16 -142 20 l-120 5 0 245 0 245 120 5 c80 4 127 10 142 20 33 21
59 76 78 165 40 184 138 417 246 586 41 63 49 84 49 123 0 62 -9 77 -96 166
l-73 75 172 172 173 173 54 -56 c90 -92 125 -114 184 -114 43 0 61 7 121 46
92 60 309 165 410 199 44 14 124 37 177 50 170 41 188 63 188 227 0 58 3 108
7 111 3 4 116 7 250 7 l243 0 0 -448z m1218 421 c46 -34 64 -67 64 -117 0
-118 -118 -192 -216 -134 -135 80 -72 289 83 274 24 -2 55 -12 69 -23z m689
-881 c115 -82 54 -267 -87 -267 -112 0 -184 123 -128 219 44 75 145 98 215 48z
m-1962 -284 l50 -13 0 -995 0 -995 -50 -14 c-84 -23 -323 -19 -425 6 -384 96
-677 389 -773 773 -30 121 -30 338 1 464 101 410 440 720 858 786 75 11 273 4
339 -12z m1945 -879 c44 -25 80 -83 80 -129 0 -73 -77 -150 -150 -150 -50 0
-107 37 -130 85 -25 52 -25 78 0 130 37 77 126 105 200 64z m9 -1176 c64 -49
86 -122 56 -187 -51 -107 -200 -114 -261 -11 -26 45 -30 78 -13 122 34 90 146
129 218 76z m-680 -880 c110 -83 69 -252 -66 -270 -155 -21 -224 195 -87 275
47 27 112 25 153 -5z"/>
</g>
</svg>
