<svg width="85" height="85" viewBox="0 0 85 85" fill="none" xmlns="http://www.w3.org/2000/svg">
<path d="M59.797 33.382H58.2193V24.4118C58.2193 22.5775 57.8581 20.7613 57.1561 19.0667C56.4542 17.372 55.4254 15.8323 54.1284 14.5353C52.8314 13.2383 51.2916 12.2094 49.597 11.5075C47.9024 10.8056 46.0861 10.4443 44.2518 10.4443C42.4176 10.4443 40.6013 10.8056 38.9067 11.5075C37.2121 12.2094 35.6723 13.2383 34.3753 14.5353C33.0783 15.8323 32.0495 17.372 31.3476 19.0667C30.6456 20.7613 30.2844 22.5775 30.2844 24.4118V33.382H28.6985V24.4118C28.6507 22.3397 29.0176 20.2789 29.7775 18.3506C30.5375 16.4223 31.6752 14.6653 33.1238 13.1829C34.5724 11.7005 36.3027 10.5227 38.213 9.71846C40.1233 8.91427 42.1751 8.5 44.2477 8.5C46.3204 8.5 48.3721 8.91427 50.2824 9.71846C52.1927 10.5227 53.923 11.7005 55.3716 13.1829C56.8202 14.6653 57.9579 16.4223 58.7179 18.3506C59.4778 20.2789 59.8447 22.3397 59.797 24.4118V33.382Z" fill="black"/>
<path d="M59.8713 32.5891H28.6241C26.4137 32.5935 24.2951 33.4741 22.7329 35.0379C21.1706 36.6017 20.2921 38.7211 20.2899 40.9316V61.3418C20.7665 60.939 21.3012 60.6104 21.8758 60.3671V40.9316C21.878 39.1403 22.5906 37.423 23.8572 36.1564C25.1238 34.8898 26.8411 34.1772 28.6324 34.175H59.8713C61.6618 34.1772 63.3783 34.89 64.6436 36.1569C65.9089 37.4238 66.6197 39.1411 66.6197 40.9316V64.8853C66.6175 66.6766 65.9049 68.3939 64.6383 69.6605C63.3716 70.9272 61.6544 71.6397 59.8631 71.6419H32.7045C32.4684 72.2239 32.133 72.7605 31.7133 73.2278H59.8713C62.0818 73.2234 64.2003 72.3428 65.7626 70.779C67.3249 69.2152 68.2034 67.0958 68.2056 64.8853V40.9316C68.2056 38.7205 67.3278 36.5998 65.765 35.0355C64.2023 33.4712 62.0825 32.5913 59.8713 32.5891Z" fill="black"/>
<path d="M54.9071 33.5473H53.3295V24.8826C53.3295 22.4729 52.3722 20.1619 50.6683 18.4579C48.9643 16.754 46.6533 15.7968 44.2436 15.7968C41.8339 15.7968 39.5228 16.754 37.8189 18.4579C36.115 20.1619 35.1577 22.4729 35.1577 24.8826V33.5473H33.5883V24.8826C33.5883 22.0545 34.7118 19.3422 36.7116 17.3424C38.7114 15.3426 41.4237 14.2191 44.2518 14.2191C47.08 14.2191 49.7923 15.3426 51.7921 17.3424C53.7919 19.3422 54.9154 22.0545 54.9154 24.8826L54.9071 33.5473Z" fill="black"/>
<path d="M47.7458 55.7994L46.482 54.7587C47.0811 54.0569 47.4629 53.1958 47.5806 52.2807C47.6032 51.8235 47.5327 51.3666 47.3734 50.9375C47.214 50.5084 46.9691 50.1162 46.6536 49.7847C46.338 49.4531 45.9584 49.1891 45.5377 49.0088C45.1171 48.8284 44.6641 48.7354 44.2064 48.7354C43.7487 48.7354 43.2958 48.8284 42.8751 49.0088C42.4545 49.1891 42.0748 49.4531 41.7593 49.7847C41.4437 50.1162 41.1989 50.5084 41.0395 50.9375C40.8801 51.3666 40.8096 51.8235 40.8323 52.2807C40.9915 53.2033 41.3775 54.0718 41.9556 54.8082L40.7001 55.7333C39.9131 54.7299 39.416 53.5301 39.2629 52.2642C39.2629 51.6133 39.3911 50.9689 39.6401 50.3676C39.8892 49.7663 40.2542 49.22 40.7144 48.7598C41.1746 48.2996 41.721 47.9345 42.3223 47.6855C42.9235 47.4364 43.568 47.3082 44.2188 47.3082C44.8696 47.3082 45.5141 47.4364 46.1154 47.6855C46.7167 47.9345 47.263 48.2996 47.7232 48.7598C48.1834 49.22 48.5484 49.7663 48.7975 50.3676C49.0466 50.9689 49.1748 51.6133 49.1748 52.2642C49.082 53.5635 48.582 54.8005 47.7458 55.7994Z" fill="black"/>
<path d="M44.2518 62.0603C43.2762 62.0582 42.3413 61.6691 41.6522 60.9784C40.9632 60.2878 40.5762 59.352 40.5762 58.3764V55.2625H42.1621V58.3764C42.1441 58.6625 42.1849 58.9491 42.282 59.2188C42.3791 59.4884 42.5304 59.7353 42.7266 59.9443C42.9228 60.1532 43.1597 60.3197 43.4228 60.4335C43.6858 60.5473 43.9694 60.606 44.256 60.606C44.5426 60.606 44.8261 60.5473 45.0891 60.4335C45.3522 60.3197 45.5891 60.1532 45.7853 59.9443C45.9815 59.7353 46.1328 59.4884 46.2299 59.2188C46.327 58.9491 46.3678 58.6625 46.3498 58.3764V55.2625H47.9357V58.3764C47.9357 58.8602 47.8405 59.3392 47.6553 59.7862C47.4702 60.2332 47.1988 60.6393 46.8567 60.9814C46.5147 61.3234 46.1086 61.5948 45.6616 61.7799C45.2146 61.9651 44.7356 62.0603 44.2518 62.0603Z" fill="black"/>
<path d="M42.1539 55.2626L41.9969 54.7917H41.2535L41.1296 55.3617L41.5096 55.7664L42.1539 55.2626Z" fill="black"/>
<path d="M46.5233 54.7587L46.3416 55.2625L46.672 55.7664L47.8449 55.1634L46.5233 54.7587Z" fill="black"/>
<path d="M24.362 60.6067C23.5195 60.6061 22.6826 60.7428 21.8841 61.0114C21.329 61.195 20.7969 61.4416 20.2982 61.7466C19.3107 62.3477 18.4681 63.1595 17.8305 64.1238C17.1929 65.0882 16.776 66.1814 16.6096 67.3254C16.4432 68.4695 16.5313 69.6361 16.8678 70.7422C17.2042 71.8482 17.7807 72.8664 18.556 73.7239C19.3312 74.5815 20.2863 75.2574 21.3529 75.7034C22.4195 76.1493 23.5714 76.3543 24.7264 76.3038C25.8813 76.2532 27.0109 75.9484 28.0345 75.411C29.0581 74.8735 29.9504 74.1168 30.6478 73.1948C31.6718 71.8325 32.2255 70.1743 32.2254 68.4701C32.2233 66.3853 31.3941 64.3865 29.9199 62.9123C28.4457 61.438 26.4469 60.6089 24.362 60.6067ZM28.5828 73.1865C27.9627 73.7856 27.2269 74.2518 26.4204 74.5565C25.6138 74.8613 24.7536 74.9982 23.8922 74.9589C23.0309 74.9196 22.1867 74.705 21.4113 74.328C20.6358 73.9511 19.9455 73.4198 19.3825 72.7668C18.8196 72.1137 18.3958 71.3527 18.1372 70.5301C17.8787 69.7076 17.7907 68.841 17.8788 67.9833C17.9668 67.1256 18.229 66.2949 18.6493 65.5421C19.0695 64.7892 19.639 64.1301 20.3229 63.605C20.7995 63.2022 21.3342 62.8736 21.9088 62.6304C23.2919 62.033 24.8425 61.9481 26.2825 62.3908C27.7225 62.8335 28.9576 63.7749 29.7662 65.046C30.5748 66.3171 30.904 67.8347 30.6947 69.3266C30.4854 70.8185 29.7513 72.187 28.6241 73.1865H28.5828Z" fill="black"/>
<path d="M28.1947 64.9514L24.9816 70.535L24.1886 71.9062L23.9078 72.3935L20.6451 69.1309L21.182 68.594L21.7189 68.0571L23.5774 69.9238L23.7839 69.5604L26.8814 64.1997L28.1947 64.9514Z" fill="black"/>
</svg>
