<?xml version="1.0" standalone="no"?>
<!DOCTYPE svg PUBLIC "-//W3C//DTD SVG 20010904//EN"
 "http://www.w3.org/TR/2001/REC-SVG-20010904/DTD/svg10.dtd">
<svg version="1.0" xmlns="http://www.w3.org/2000/svg"
 width="500.000000pt" height="500.000000pt" viewBox="0 0 500.000000 500.000000"
 preserveAspectRatio="xMidYMid meet">

<g transform="translate(0.000000,500.000000) scale(0.100000,-0.100000)"
fill="#000000" stroke="none">
<path d="M2410 4989 c-71 -14 -167 -67 -223 -123 -54 -54 -110 -147 -122 -204
-5 -24 -13 -33 -33 -38 -209 -46 -457 -145 -645 -257 l-79 -47 -62 29 c-384
184 -779 -211 -595 -595 l29 -62 -47 -79 c-112 -188 -211 -436 -257 -645 -5
-20 -14 -28 -38 -33 -57 -12 -150 -68 -204 -122 -135 -135 -169 -338 -83 -511
53 -107 183 -215 287 -237 24 -5 33 -13 38 -33 39 -180 136 -429 235 -602 l68
-119 -29 -63 c-107 -230 -16 -490 209 -597 65 -31 87 -36 167 -39 98 -5 176
11 245 50 l36 20 96 -56 c181 -104 356 -176 546 -226 l104 -26 22 -62 c95
-263 378 -382 621 -262 106 52 186 144 229 262 l22 62 59 13 c168 38 419 141
605 248 l77 45 69 -33 c65 -31 73 -32 188 -32 114 0 123 2 188 32 93 44 169
119 215 212 37 74 37 77 37 195 0 116 -1 124 -33 190 l-32 68 35 58 c97 159
203 413 249 594 l22 89 63 23 c129 46 233 147 282 272 32 81 32 223 0 304 -48
125 -153 226 -281 272 l-63 23 -23 94 c-46 183 -146 422 -244 583 l-42 69 20
36 c39 69 55 147 50 245 -3 80 -8 101 -39 166 -108 226 -367 317 -597 210
l-63 -29 -119 68 c-173 99 -422 196 -602 235 -20 5 -28 14 -33 38 -12 57 -68
150 -122 204 -105 105 -256 152 -403 123z m198 -87 c119 -38 205 -122 242
-241 58 -185 -27 -370 -210 -454 -64 -30 -216 -30 -280 0 -108 50 -178 127
-212 235 -23 77 -23 140 2 219 61 194 264 301 458 241z m-555 -399 c4 -21 3
-41 -1 -44 -4 -4 -42 -17 -86 -28 -155 -42 -412 -152 -498 -212 -35 -26 -43
-24 -69 12 l-22 32 24 18 c82 62 361 185 534 235 109 31 111 31 118 -13z
m1112 -21 c131 -43 379 -158 434 -201 l24 -18 -22 -32 c-12 -17 -26 -31 -32
-31 -5 0 -31 14 -58 30 -122 75 -378 180 -514 211 -58 12 -59 13 -53 42 3 16
6 36 6 44 0 21 44 12 215 -45z m-1059 -144 c27 -61 119 -150 191 -187 128 -64
265 -65 398 -2 75 35 162 115 195 182 12 24 24 45 25 47 2 2 48 -8 102 -23
130 -36 296 -104 416 -172 86 -48 98 -58 93 -77 -37 -132 -30 -238 23 -351 91
-195 332 -300 531 -231 l40 14 34 -57 c47 -77 111 -207 145 -294 29 -73 86
-267 79 -271 -2 -1 -20 -11 -42 -21 -95 -49 -183 -156 -217 -266 -62 -199 35
-430 221 -524 19 -10 36 -19 38 -20 6 -6 -47 -188 -77 -266 -34 -88 -86 -196
-139 -287 -33 -56 -40 -62 -62 -57 -162 36 -236 30 -355 -29 -126 -62 -213
-183 -238 -331 -11 -62 -7 -100 18 -215 5 -22 -1 -29 -57 -62 -91 -53 -199
-105 -287 -139 -78 -30 -260 -83 -266 -77 -1 2 -10 19 -20 38 -94 186 -325
283 -524 221 -110 -34 -217 -122 -266 -217 -10 -22 -20 -40 -21 -42 -4 -7
-199 50 -273 80 -89 35 -213 96 -292 144 l-57 34 14 40 c37 106 26 220 -31
336 -82 167 -280 268 -463 236 -37 -6 -77 -14 -88 -18 -19 -5 -29 6 -72 84
-69 122 -137 283 -172 410 -17 58 -30 109 -30 112 0 4 19 16 42 26 107 48 207
191 231 329 29 172 -72 379 -224 455 -24 12 -45 24 -47 25 -6 5 39 165 67 242
41 111 82 199 136 293 44 75 50 81 74 76 151 -35 235 -30 344 22 199 93 299
322 235 536 -11 35 -10 39 13 57 35 27 253 134 334 164 67 25 228 73 251 74 6
1 20 -18 30 -41z m-900 -54 c74 -35 148 -108 182 -182 23 -49 27 -70 27 -152
0 -87 -3 -101 -32 -161 -149 -303 -586 -267 -685 55 -59 195 51 394 257 463
64 21 180 11 251 -23z m2890 2 c171 -78 259 -267 206 -442 -101 -326 -540
-356 -693 -47 -21 41 -24 63 -24 153 0 96 2 110 28 159 51 96 150 176 251 202
60 16 168 4 232 -25z m-3321 -690 c30 -24 30 -25 12 -53 -74 -118 -167 -333
-215 -500 l-29 -98 -39 3 c-21 2 -41 5 -43 8 -8 7 41 176 84 288 58 154 173
376 193 376 4 0 21 -11 37 -24z m3528 -33 c55 -91 111 -209 151 -316 36 -97
91 -286 84 -292 -2 -2 -21 -5 -42 -7 l-39 -3 -29 98 c-48 167 -141 382 -215
500 -18 28 -18 29 12 53 17 13 33 24 37 24 4 0 22 -26 41 -57z m-3745 -711
c108 -34 185 -104 235 -212 16 -36 21 -65 21 -140 0 -75 -5 -104 -21 -140 -50
-108 -127 -178 -235 -212 -76 -23 -140 -23 -216 0 -119 38 -205 122 -242 241
-25 80 -25 142 0 222 61 194 264 301 458 241z m4101 -1 c156 -48 254 -184 254
-351 0 -171 -104 -309 -267 -356 -169 -48 -358 41 -434 204 -23 49 -27 70 -27
152 0 88 3 101 33 162 81 165 265 244 441 189z m-4087 -896 c47 -161 127 -349
210 -488 l22 -38 -29 -24 c-17 -13 -33 -24 -37 -25 -11 0 -74 110 -128 222
-48 102 -132 338 -145 410 -7 34 -5 37 22 41 54 8 56 6 85 -98z m3966 90 c6
-6 -50 -200 -85 -295 -36 -97 -139 -305 -172 -349 l-18 -24 -32 22 c-37 27
-38 31 -7 79 68 109 157 315 201 467 14 50 27 96 30 103 3 9 16 11 42 6 21 -4
39 -8 41 -9z m-3323 -662 c244 -125 276 -460 59 -626 -145 -111 -347 -97 -481
35 -181 178 -133 477 97 593 59 30 82 34 175 32 78 -3 98 -8 150 -34z m2885 8
c239 -123 292 -411 108 -598 -30 -30 -76 -63 -112 -80 -53 -24 -73 -28 -151
-28 -78 1 -98 5 -150 30 -73 35 -144 104 -181 176 -36 71 -45 191 -19 272 31
101 134 206 234 241 69 24 212 17 271 -13z m-1446 -604 c167 -77 254 -276 196
-447 -47 -139 -144 -224 -288 -250 -140 -25 -286 36 -366 153 -140 207 -44
484 197 563 65 22 192 12 261 -19z m-1186 -6 c85 -60 320 -160 489 -209 l98
-29 -3 -39 c-2 -21 -5 -40 -7 -42 -6 -7 -194 47 -292 84 -99 37 -308 139 -352
173 l-24 18 22 32 c26 36 34 38 69 12z m2133 -12 l22 -32 -24 -18 c-44 -33
-252 -136 -349 -172 -97 -36 -289 -91 -295 -85 -2 2 -5 21 -7 42 l-3 39 100
29 c162 47 381 141 480 207 41 27 50 26 76 -10z"/>
<path d="M2385 3819 c-523 -45 -976 -405 -1145 -909 -63 -189 -80 -457 -42
-655 87 -440 388 -808 802 -978 310 -128 689 -129 993 -3 409 170 708 526 802
956 22 103 31 336 16 441 -65 450 -335 825 -736 1020 -218 106 -451 149 -690
128z m75 -208 l0 -128 -62 -7 c-168 -19 -360 -96 -494 -199 l-71 -55 -94 94
c-93 94 -94 95 -73 112 174 140 272 196 437 251 96 32 232 59 300 60 l57 1 0
-129z m261 114 c215 -40 436 -145 599 -285 l34 -30 -93 -94 -94 -94 -71 55
c-134 103 -326 180 -493 199 l-63 7 0 128 0 129 49 0 c27 0 86 -7 132 -15z
m-43 -341 c273 -56 502 -234 627 -487 142 -289 121 -621 -56 -892 -115 -177
-292 -306 -506 -372 -78 -23 -104 -26 -238 -27 -177 0 -254 17 -402 89 -425
207 -616 704 -438 1143 111 274 361 484 650 545 94 20 267 21 363 1z m-991
-126 l92 -91 -56 -71 c-101 -130 -180 -325 -199 -493 l-7 -63 -130 0 -130 0 6
83 c11 156 80 371 164 511 40 66 152 216 162 216 3 0 47 -41 98 -92z m1816
-23 c132 -178 237 -465 237 -651 l0 -44 -130 0 c-71 0 -130 3 -130 8 0 4 -7
50 -14 102 -25 163 -90 315 -190 445 l-54 70 91 92 c106 108 92 109 190 -22z
m-1979 -837 c19 -168 96 -360 199 -494 l55 -71 -94 -94 -94 -93 -30 34 c-93
109 -183 265 -234 408 -32 91 -66 254 -66 321 l0 51 129 0 128 0 7 -62z m2216
18 c0 -219 -142 -563 -303 -734 l-31 -32 -92 91 -92 92 60 80 c103 140 158
270 183 437 8 52 15 98 15 103 0 4 59 7 130 7 l130 0 0 -44z m-1690 -786 c92
-46 199 -80 300 -96 52 -7 98 -14 103 -14 4 0 7 -58 7 -130 l0 -130 -44 0
c-67 0 -204 27 -303 59 -156 51 -317 142 -426 240 l-38 34 92 93 92 92 80 -60
c45 -33 106 -72 137 -88z m1282 -54 c-35 -39 -171 -134 -259 -179 -148 -77
-362 -137 -484 -137 l-49 0 0 130 c0 72 3 130 8 130 4 0 50 7 102 15 169 25
314 87 445 190 l70 54 92 -91 c89 -89 92 -93 75 -112z"/>
<path d="M2345 3164 c-96 -21 -149 -51 -153 -87 -5 -43 18 -69 102 -110 110
-54 206 -90 416 -153 247 -75 346 -108 424 -144 l66 -29 -6 27 c-39 166 -195
353 -358 432 -45 21 -108 46 -141 55 -89 23 -265 28 -350 9z"/>
<path d="M1952 2935 c-106 -116 -165 -268 -165 -430 0 -305 198 -559 513 -656
63 -20 96 -24 205 -23 119 0 138 3 225 32 127 42 210 92 295 178 64 64 129
165 149 230 6 21 6 21 -76 7 -108 -19 -348 -13 -433 11 -236 67 -453 242 -558
451 -30 61 -77 207 -77 241 0 13 -4 24 -9 24 -5 0 -36 -29 -69 -65z"/>
<path d="M2886 2699 c10 -19 46 -61 79 -94 61 -61 218 -185 236 -185 5 0 9 40
9 90 l0 89 -42 25 c-47 27 -221 93 -270 103 l-31 6 19 -34z"/>
</g>
</svg>
