<?xml version="1.0" standalone="no"?>
<!DOCTYPE svg PUBLIC "-//W3C//DTD SVG 20010904//EN"
 "http://www.w3.org/TR/2001/REC-SVG-20010904/DTD/svg10.dtd">
<svg version="1.0" xmlns="http://www.w3.org/2000/svg"
 width="500.000000pt" height="500.000000pt" viewBox="0 0 500.000000 500.000000"
 preserveAspectRatio="xMidYMid meet">

<g transform="translate(0.000000,500.000000) scale(0.100000,-0.100000)"
fill="#000000" stroke="none">
<path d="M1017 4905 c-22 -7 -51 -24 -65 -37 -85 -76 -92 -103 -92 -360 l0
-208 -187 0 c-104 0 -217 -5 -252 -10 -137 -19 -244 -100 -304 -228 l-32 -67
0 -1340 0 -1340 31 -65 c46 -95 93 -143 182 -187 l76 -38 725 -3 c400 -1 731
-4 737 -6 7 -3 -8 -61 -41 -158 l-52 -153 -84 -6 c-125 -8 -186 -45 -228 -139
-18 -40 -21 -65 -21 -238 0 -192 0 -193 25 -217 l24 -25 1041 0 1041 0 24 25
c25 24 25 25 25 217 0 173 -3 198 -21 238 -42 94 -103 131 -228 139 l-84 6
-52 153 c-33 97 -48 155 -41 158 6 2 337 5 737 6 l725 3 76 38 c89 44 136 92
182 187 l31 65 0 1340 0 1340 -32 67 c-60 128 -167 209 -304 228 -35 5 -148
10 -251 10 l-188 0 0 208 c0 236 -8 276 -66 336 -75 78 73 71 -1559 73 -1219
2 -1466 0 -1498 -12z m2944 -164 l29 -29 0 -206 0 -206 -1491 0 -1490 0 3 211
3 211 28 24 28 24 1430 0 1431 0 29 -29z m-3101 -681 l0 -80 -209 0 c-191 0
-211 -2 -232 -19 l-24 -19 -3 -1269 c-2 -951 1 -1275 9 -1296 7 -16 23 -33 36
-38 14 -5 520 -9 1220 -9 1368 0 1233 11 1233 -97 l0 -63 -1227 0 c-856 0
-1240 3 -1268 11 -53 14 -136 99 -153 155 -18 63 -17 2594 2 2647 21 58 61
103 118 131 51 26 55 26 275 26 l223 0 0 -80z m3130 -780 c0 -506 -4 -860 -9
-860 -5 0 -21 20 -36 45 -64 109 -227 146 -321 73 l-25 -20 -50 26 c-34 19
-70 29 -118 33 l-70 6 -3 301 c-3 286 -4 303 -25 341 -40 76 -108 122 -193
132 l-49 6 -16 54 c-22 74 -92 207 -148 280 -182 238 -487 376 -787 359 -396
-22 -725 -277 -844 -654 -152 -481 111 -996 592 -1161 322 -110 686 -31 940
203 l62 58 0 -121 0 -121 -65 0 c-147 0 -233 -84 -243 -237 l-5 -73 -754 0
-755 0 -29 29 -29 29 0 1066 0 1066 1490 0 1490 0 0 -860z m666 825 c30 -19
60 -49 79 -79 l30 -49 3 -1296 c2 -1001 0 -1306 -10 -1341 -16 -59 -97 -144
-153 -159 -23 -6 -130 -11 -253 -11 l-213 0 3 78 3 77 205 5 c113 3 212 9 222
13 9 5 21 20 27 35 8 19 11 386 9 1295 l-3 1269 -24 19 c-21 17 -41 19 -232
19 l-209 0 0 81 0 80 233 -3 234 -3 49 -30z m-2271 -221 c224 -60 420 -227
515 -438 16 -35 34 -85 41 -110 11 -44 10 -50 -17 -99 -29 -52 -29 -53 -34
-263 l-5 -210 -43 -66 c-55 -84 -178 -201 -262 -251 -96 -56 -234 -97 -349
-104 -367 -22 -706 226 -803 586 -29 108 -29 286 1 396 77 287 314 508 611
571 81 17 262 11 345 -12z m-1523 -987 l3 -934 30 -49 c19 -30 49 -60 79 -79
l49 -30 779 -3 778 -2 0 -86 c0 -99 10 -123 74 -182 25 -23 46 -45 46 -47 0
-3 -484 -5 -1075 -5 l-1075 0 0 1175 0 1175 155 0 155 0 2 -933z m3588 -242
l0 -1175 -110 0 c-60 0 -110 2 -110 5 0 3 15 34 33 68 l32 62 0 305 c0 233 -3
314 -14 344 -17 48 -71 109 -111 126 l-30 12 0 714 0 714 155 0 155 0 0 -1175z
m-1270 525 c20 -20 20 -33 20 -660 l0 -640 80 0 80 0 0 270 0 270 55 0 c46 0
60 -4 80 -25 l25 -24 0 -246 0 -245 75 0 75 0 0 245 0 246 25 24 c15 16 36 25
55 25 19 0 40 -9 55 -25 l25 -24 0 -246 0 -245 75 0 75 0 0 195 0 195 55 0
c46 0 60 -4 80 -25 l25 -24 0 -285 0 -284 -75 -151 -75 -152 0 -89 0 -90 -469
0 -469 0 -4 95 -4 96 -157 157 -157 157 0 193 c0 191 0 193 25 217 20 21 34
25 80 25 l55 0 0 -115 0 -115 80 0 80 0 0 640 c0 627 0 640 20 660 12 12 33
20 55 20 22 0 43 -8 55 -20z m-134 -2322 l52 -158 -598 0 -599 0 50 148 c27
81 51 153 54 160 3 10 108 12 496 10 l492 -3 53 -157z m369 -333 c24 -23 25
-29 25 -160 l0 -135 -940 0 -940 0 0 135 c0 131 1 137 25 160 l24 25 891 0
891 0 24 -25z"/>
<path d="M1172 4533 l3 -78 388 -3 387 -2 0 80 0 80 -390 0 -391 0 3 -77z"/>
<path d="M2110 4530 l0 -80 390 0 390 0 0 80 0 80 -390 0 -390 0 0 -80z"/>
<path d="M3050 4530 l0 -80 388 2 387 3 3 78 3 77 -391 0 -390 0 0 -80z"/>
<path d="M2349 3657 c-89 -34 -146 -106 -156 -200 l-5 -54 -115 -56 -114 -57
-32 24 c-146 110 -360 -2 -360 -189 -1 -187 214 -299 360 -189 l32 24 114 -57
115 -56 5 -52 c10 -94 54 -156 137 -194 170 -77 357 73 320 256 -14 64 -43
109 -95 145 -75 53 -184 54 -260 2 l-35 -24 -115 57 c-109 55 -115 59 -115 88
0 29 6 33 115 88 l115 57 35 -24 c150 -102 354 6 355 187 0 96 -42 167 -124
209 -50 25 -131 32 -177 15z m126 -162 c50 -49 15 -135 -55 -135 -39 0 -80 39
-80 75 0 35 50 85 85 85 14 0 37 -11 50 -25z m-616 -321 c12 -15 21 -37 21
-49 0 -12 -9 -34 -21 -49 -26 -33 -88 -37 -119 -6 -26 26 -26 80 0 108 31 33
92 30 119 -4z m616 -309 c16 -15 25 -36 25 -55 0 -36 -38 -80 -69 -80 -50 0
-91 41 -91 91 0 31 44 69 80 69 19 0 40 -9 55 -25z"/>
</g>
</svg>
