<?xml version="1.0" standalone="no"?>
<!DOCTYPE svg PUBLIC "-//W3C//DTD SVG 20010904//EN"
 "http://www.w3.org/TR/2001/REC-SVG-20010904/DTD/svg10.dtd">
<svg version="1.0" xmlns="http://www.w3.org/2000/svg"
 width="500.000000pt" height="500.000000pt" viewBox="0 0 500.000000 500.000000"
 preserveAspectRatio="xMidYMid meet">

<g transform="translate(0.000000,500.000000) scale(0.100000,-0.100000)"
fill="#000000" stroke="none">
<path d="M2508 4435 c-83 -16 -202 -59 -230 -83 -25 -21 -23 -77 3 -103 25
-25 42 -23 144 15 330 120 690 -16 869 -327 33 -57 72 -169 82 -232 l6 -45
-417 0 c-476 0 -468 -1 -506 77 -19 39 -20 50 -10 83 6 21 25 50 42 64 30 25
35 26 171 26 114 0 145 -3 169 -17 29 -17 59 -67 59 -98 0 -20 19 -57 34 -67
22 -15 73 -8 92 13 45 50 -2 193 -84 256 -42 32 -81 47 -154 58 -36 6 -38 8
-38 41 0 36 -15 73 -34 86 -21 14 -73 8 -89 -10 -11 -12 -17 -36 -17 -64 l0
-46 -60 -10 c-81 -15 -122 -36 -169 -87 -64 -69 -86 -175 -56 -260 8 -22 15
-41 15 -42 0 -6 -367 -3 -372 2 -10 10 13 109 43 186 16 42 52 108 79 147 28
40 50 82 50 97 0 36 -33 65 -75 65 -31 0 -40 -6 -80 -61 -79 -107 -137 -254
-160 -401 l-6 -38 -489 0 -489 0 -20 -26 c-20 -26 -21 -37 -21 -420 l0 -394
-68 0 -68 0 -23 54 c-31 75 -90 139 -159 173 -49 24 -69 28 -142 28 -73 0 -93
-4 -142 -28 -155 -76 -228 -274 -157 -427 100 -213 371 -262 533 -96 24 25 54
71 67 101 l23 55 68 0 68 0 0 -453 0 -453 -55 -23 c-66 -27 -134 -92 -166
-158 -18 -35 -25 -70 -27 -130 -4 -75 -1 -89 26 -145 36 -78 99 -141 169 -170
l53 -22 0 -268 0 -269 25 -24 24 -25 1758 0 c1516 0 1767 2 1821 15 159 38
270 136 335 298 20 48 22 76 27 346 l5 294 40 14 c57 19 106 62 140 124 29 52
30 59 33 216 l4 162 -26 25 c-30 31 -65 33 -97 7 -23 -18 -24 -26 -29 -180
l-5 -161 -33 -32 -32 -33 -468 0 -467 0 -57 27 c-76 35 -141 104 -168 175 -20
53 -21 73 -18 283 l3 225 30 54 c37 68 102 125 171 151 52 19 77 20 505 20
485 0 492 -1 521 -53 7 -12 15 -66 18 -121 5 -87 8 -100 29 -117 32 -26 67
-24 98 7 25 25 25 28 21 127 -4 85 -9 111 -31 153 -30 60 -83 107 -144 130
l-43 17 0 263 c0 153 -5 285 -11 316 -35 169 -169 308 -342 354 -40 11 -145
14 -475 14 -329 0 -423 3 -426 13 -2 6 -11 49 -19 94 -57 308 -297 562 -618
653 -98 28 -276 35 -381 15z m1934 -942 c70 -32 131 -94 164 -166 l29 -62 0
-275 0 -275 -122 -3 -123 -3 -1 173 c-1 254 -9 298 -59 343 -50 45 0 44 -1742
45 l-1648 0 0 125 0 125 1728 -2 1727 -3 47 -22z m-218 -369 c14 -5 16 -33 16
-210 l0 -204 -198 0 c-152 0 -211 -4 -253 -16 -147 -43 -265 -159 -311 -306
-16 -55 -19 -92 -18 -291 0 -203 2 -235 21 -289 52 -156 177 -272 330 -307 24
-6 131 -11 237 -11 l192 0 -2 -202 -3 -203 -1041 -5 c-1007 -5 -1043 -6 -1063
-24 -25 -23 -27 -63 -5 -94 l15 -22 1062 0 1062 0 39 23 c73 41 81 71 84 312
l2 210 123 0 122 0 0 -275 0 -275 -33 -67 c-37 -76 -82 -120 -162 -157 l-55
-26 -1722 -3 -1723 -2 0 130 0 130 462 0 c415 0 463 2 480 17 28 25 24 77 -8
102 -26 21 -37 21 -480 21 l-454 0 0 23 c0 18 12 28 59 50 72 33 144 109 168
178 l18 49 448 0 c261 0 456 4 466 9 10 6 51 49 92 98 41 48 162 190 268 316
l193 227 199 0 c186 0 200 1 219 20 25 25 26 71 3 99 -18 21 -25 21 -408 24
l-389 2 -267 314 c-147 173 -273 318 -281 322 -7 5 -187 9 -400 9 l-388 0 0
155 0 155 1634 0 c899 0 1641 -3 1650 -6z m-3806 -211 c18 -9 44 -30 57 -47
93 -123 8 -296 -145 -296 -50 0 -88 15 -123 48 -42 39 -57 75 -57 132 0 145
134 226 268 163z m1449 -479 c114 -135 210 -250 211 -255 2 -5 -58 -9 -142 -9
l-145 0 -27 60 c-31 70 -102 141 -172 173 -35 16 -67 21 -127 22 -102 0 -171
-31 -243 -110 -60 -66 -82 -124 -82 -219 0 -58 5 -82 29 -131 121 -252 468
-252 592 1 l32 64 334 0 335 0 -30 -37 c-17 -21 -113 -135 -214 -253 l-183
-215 -425 -3 -425 -2 -19 52 c-24 67 -112 157 -178 183 l-48 18 0 453 0 454
360 0 359 0 208 -246z m-354 -155 c122 -34 173 -183 98 -286 -40 -55 -89 -76
-161 -71 -71 5 -123 40 -151 102 -45 99 4 214 108 251 47 17 58 18 106 4z
m-564 -669 c168 -85 105 -340 -84 -340 -107 0 -185 76 -185 180 0 72 42 138
105 166 44 20 120 17 164 -6z"/>
<path d="M3999 2356 c-196 -70 -251 -302 -107 -446 104 -105 288 -97 386 15
46 52 64 101 65 176 0 49 -6 79 -22 112 -58 119 -205 185 -322 143z m124 -140
c45 -19 68 -48 74 -95 11 -82 -39 -141 -120 -141 -67 0 -127 58 -127 122 0 37
34 90 71 110 40 22 59 22 102 4z"/>
</g>
</svg>
